# xmcd
#
# Track frame offsets:
#	150
#	13503
#	29643
#	43589
#	57714
#	72380
#
# Disc length: 1208 seconds
#
# Revision: 1
# Processed by: cddbd v1.5.2PL0 Copyright (c) Steve Scherf et al.
# Submitted via: audiograbber 1.83.01
#
DISCID=5404b606
DTITLE=Frankie Ballard - Tour Six Pack
DYEAR=2010
DGENRE=
TTITLE0=While The Sun Sleeps
TTITLE1=Sober Me Up
TTITLE2=Place To Lay Your Head
TTITLE3=Tell Me You Get Lonely
TTITLE4=Get On Down The Road
TTITLE5=Lonely
EXTD=
EXTT0=
EXTT1=
EXTT2=
EXTT3=
EXTT4=
EXTT5=
PLAYORDER=
